<svg id="Layer_1" data-name="Layer 1" xmlns="http://www.w3.org/2000/svg" viewBox="0 0 122.88 122.88"><title>round-line-top-arrow</title><path d="M122.85,61.43h0a61.39,61.39,0,0,1-61.43,61.41v0h0v0A61.38,61.38,0,0,1,0,61.45H0v0H0A61.35,61.35,0,0,1,61.43,0V0h0V0a61.34,61.34,0,0,1,61.38,61.4ZM61.44,31.9,33.92,62.41H51.5V83.68H71.38V62.41H89L61.44,31.9Zm48.28,29.54h0A48.36,48.36,0,0,0,61.47,13.14v0h0v0A48.35,48.35,0,0,0,13.14,61.41h0v0h0a48.27,48.27,0,0,0,48.27,48.29v0h0v0a48.3,48.3,0,0,0,48.27-48.3Z"/></svg>